<svg width="28" height="28" viewBox="0 0 28 28" fill="none" xmlns="http://www.w3.org/2000/svg">
<path d="M24.5 11.6667H3.5M24.5 14.5833V10.2667C24.5 8.30648 24.5 7.32639 24.1185 6.57769C23.783 5.91913 23.2475 5.3837 22.589 5.04814C21.8403 4.66666 20.8602 4.66666 18.9 4.66666H9.1C7.13982 4.66666 6.15972 4.66666 5.41103 5.04814C4.75247 5.3837 4.21703 5.91913 3.88148 6.57769C3.5 7.32639 3.5 8.30648 3.5 10.2667V20.0667C3.5 22.0268 3.5 23.0069 3.88148 23.7556C4.21703 24.4142 4.75247 24.9496 5.41103 25.2852C6.15972 25.6667 7.13982 25.6667 9.1 25.6667H14M18.6667 2.33333V6.99999M9.33333 2.33333V6.99999M16.9167 22.1667L19.25 24.5L24.5 19.25" stroke="#7F56D9" stroke-width="2" stroke-linecap="round" stroke-linejoin="round"/>
</svg>
