<svg width="26" height="24" viewBox="0 0 26 24" fill="none" xmlns="http://www.w3.org/2000/svg">
<path d="M14.1667 3.83333C14.1667 5.122 11.2938 6.16667 7.74999 6.16667C4.20617 6.16667 1.33333 5.122 1.33333 3.83333M14.1667 3.83333C14.1667 2.54467 11.2938 1.5 7.74999 1.5C4.20617 1.5 1.33333 2.54467 1.33333 3.83333M14.1667 3.83333V9.03334C12.7416 9.46131 11.8333 10.1088 11.8333 10.8333M1.33333 3.83333V17.8333C1.33333 19.122 4.20617 20.1667 7.74999 20.1667C9.30123 20.1667 10.7239 19.9665 11.8333 19.6333V10.8333M1.33333 8.5C1.33333 9.78866 4.20617 10.8333 7.74999 10.8333C9.30123 10.8333 10.7239 10.6332 11.8333 10.3M1.33333 13.1667C1.33333 14.4553 4.20617 15.5 7.74999 15.5C9.30123 15.5 10.7239 15.2998 11.8333 14.9667M24.6667 10.8333C24.6667 12.122 21.7938 13.1667 18.25 13.1667C14.7062 13.1667 11.8333 12.122 11.8333 10.8333M24.6667 10.8333C24.6667 9.54467 21.7938 8.5 18.25 8.5C14.7062 8.5 11.8333 9.54467 11.8333 10.8333M24.6667 10.8333V20.1667C24.6667 21.4553 21.7938 22.5 18.25 22.5C14.7062 22.5 11.8333 21.4553 11.8333 20.1667V10.8333M24.6667 15.5C24.6667 16.7887 21.7938 17.8333 18.25 17.8333C14.7062 17.8333 11.8333 16.7887 11.8333 15.5" stroke="#7F56D9" stroke-width="2" stroke-linecap="round" stroke-linejoin="round"/>
</svg>
