<svg width="24" height="25" viewBox="0 0 24 25" fill="none" xmlns="http://www.w3.org/2000/svg">
<path d="M11.2827 3.9533C11.5131 3.48637 11.6284 3.2529 11.7848 3.1783C11.9209 3.1134 12.0791 3.1134 12.2152 3.1783C12.3717 3.2529 12.4869 3.48637 12.7174 3.9533L14.9041 8.38327C14.9721 8.52112 15.0061 8.59005 15.0558 8.64356C15.0999 8.69095 15.1527 8.72934 15.2113 8.75661C15.2776 8.78741 15.3536 8.79853 15.5057 8.82076L20.397 9.53569C20.9121 9.61098 21.1696 9.64862 21.2888 9.77443C21.3925 9.88388 21.4412 10.0343 21.4215 10.1838C21.3988 10.3556 21.2124 10.5372 20.8395 10.9004L17.3014 14.3464C17.1912 14.4538 17.136 14.5075 17.1004 14.5715C17.0689 14.628 17.0487 14.6902 17.0409 14.7545C17.0321 14.8271 17.0451 14.903 17.0711 15.0547L17.906 19.9221C17.994 20.4355 18.038 20.6922 17.9553 20.8445C17.8833 20.977 17.7554 21.07 17.6071 21.0975C17.4366 21.1291 17.2061 21.0078 16.7451 20.7654L12.3724 18.4658C12.2361 18.3942 12.168 18.3583 12.0962 18.3443C12.0327 18.3318 11.9673 18.3318 11.9038 18.3443C11.832 18.3583 11.7639 18.3942 11.6277 18.4658L7.25492 20.7654C6.79392 21.0078 6.56341 21.1291 6.39297 21.0975C6.24468 21.07 6.11672 20.977 6.04474 20.8445C5.962 20.6922 6.00603 20.4355 6.09407 19.9221L6.92889 15.0547C6.95491 14.903 6.96793 14.8271 6.95912 14.7545C6.95132 14.6902 6.93111 14.628 6.89961 14.5715C6.86402 14.5075 6.80888 14.4538 6.69859 14.3464L3.16056 10.9004C2.78766 10.5372 2.60121 10.3556 2.57853 10.1838C2.55879 10.0343 2.60755 9.88388 2.71125 9.77443C2.83044 9.64862 3.08797 9.61098 3.60304 9.53569L8.49431 8.82076C8.64642 8.79853 8.72248 8.78741 8.78872 8.75661C8.84736 8.72934 8.90016 8.69095 8.94419 8.64356C8.99391 8.59005 9.02793 8.52112 9.09597 8.38327L11.2827 3.9533Z" stroke="#D6BBFB" stroke-width="2" stroke-linecap="round" stroke-linejoin="round"/>
</svg>
